<?xml version="1.0" encoding="utf-8"?>
<!-- Generator: Adobe Illustrator 16.0.0, SVG Export Plug-In . SVG Version: 6.00 Build 0)  -->
<!DOCTYPE svg PUBLIC "-//W3C//DTD SVG 1.1//EN" "http://www.w3.org/Graphics/SVG/1.1/DTD/svg11.dtd">
<svg version="1.1" id="Layer_1" xmlns="http://www.w3.org/2000/svg" xmlns:xlink="http://www.w3.org/1999/xlink" x="0px" y="0px"
	 width="30px" height="33px" viewBox="0 0 30 33" enable-background="new 0 0 30 33" xml:space="preserve">
<title>關於我們</title>
<desc>Created with Sketch.</desc>
<g id="_x30_1首頁" transform="translate(-987.000000, -874.000000)">
	<g id="關於我們" transform="translate(0.000000, 5.000000)">
		<path id="Fill-1" fill="#FFFFFF" d="M988.932,900.038v-29.076h19.419v5.971c0,0.542,0.434,0.981,0.967,0.981h5.75v22.125
			L988.932,900.038L988.932,900.038z M1010.283,872.268l3.628,3.685h-3.628V872.268z M1009.798,869H987v33h30v-25.686L1009.798,869z
			"/>
		<path id="Fill-4" fill="#FFFFFF" d="M1001.033,880.923c2.193,0,3.979,1.996,3.979,4.451h-8.022
			C996.989,882.96,998.841,880.923,1001.033,880.923 M1001.033,874.283c1.078,0,1.988,1.036,1.988,2.262
			c0,1.207-0.893,2.189-1.988,2.189c-1.114,0-2.055-1.003-2.055-2.189C998.978,875.34,999.938,874.283,1001.033,874.283
			 M995.995,887.562h10.011c0.549,0,0.994-0.49,0.994-1.096v-1.094c0-2.477-1.238-4.664-3.09-5.811
			c0.682-0.786,1.102-1.848,1.102-3.018c0-2.409-1.77-4.451-3.979-4.451c-2.192,0-4.044,2.038-4.044,4.451
			c0,1.134,0.404,2.205,1.137,3.027c-1.818,1.122-3.126,3.276-3.126,5.802v1.094C995,887.072,995.445,887.562,995.995,887.562"/>
		<path id="Fill-6" fill="#FFFFFF" d="M1009,891.688h-17c-0.552,0-1,0.463-1,1.031c0,0.569,0.448,1.031,1,1.031h17
			c0.553,0,1-0.462,1-1.031C1010,892.15,1009.553,891.688,1009,891.688"/>
		<path id="Fill-8" fill="#FFFFFF" d="M1001.966,895.625h-9.933c-0.571,0-1.034,0.504-1.034,1.125s0.463,1.125,1.034,1.125h9.933
			c0.571,0,1.034-0.504,1.034-1.125S1002.537,895.625,1001.966,895.625"/>
	</g>
</g>
</svg>
