<?xml version="1.0" encoding="utf-8"?>
<!-- Generator: Adobe Illustrator 16.0.0, SVG Export Plug-In . SVG Version: 6.00 Build 0)  -->
<!DOCTYPE svg PUBLIC "-//W3C//DTD SVG 1.1//EN" "http://www.w3.org/Graphics/SVG/1.1/DTD/svg11.dtd">
<svg version="1.1" id="Layer_1" xmlns="http://www.w3.org/2000/svg" xmlns:xlink="http://www.w3.org/1999/xlink" x="0px" y="0px"
	 width="32px" height="32px" viewBox="0 0 32 32" enable-background="new 0 0 32 32" xml:space="preserve">
<title>Group 2</title>
<desc>Created with Sketch.</desc>
<g id="_x31_920">
	<g id="_x30_1首頁" transform="translate(-985.000000, -2661.000000)">
		<g id="Group-16" transform="translate(985.000000, 2459.000000)">
			<g id="Group-4" transform="translate(0.000000, 100.000000)">
				<g id="Group-7" transform="translate(0.000000, 102.000000)">
					<g id="Group-2">
						<path id="Fill-9" fill="#20BF55" d="M10.042,26.271l-7.984,3.194V13.649l7.984-3.194V26.271z M31.002,13.973
							c-0.551,0-0.998,0.447-0.998,0.998v11.302l-7.984,3.194V18.963c0-0.551-0.447-0.998-0.998-0.998s-0.998,0.447-0.998,0.998
							v10.502l-7.985-3.194V10.458l4.625,1.851c0.504,0.204,1.092-0.044,1.297-0.557c0.205-0.511-0.044-1.092-0.557-1.297
							L11.43,8.062h-0.002l-0.016-0.006c-0.237-0.096-0.503-0.096-0.74,0l-0.018,0.006h-0.002l-9.962,3.986
							c-0.377,0.152-0.627,0.517-0.627,0.926v17.965c0,0.332,0.166,0.641,0.439,0.826c0.168,0.114,0.361,0.172,0.559,0.172
							c0.126,0,0.251-0.023,0.371-0.072l9.609-3.842l9.591,3.836h0.002l0.019,0.008c0.236,0.097,0.502,0.097,0.74,0l0.018-0.008
							h0.002l9.963-3.984C31.75,27.722,32,27.356,32,26.947V14.971C32,14.42,31.553,13.973,31.002,13.973z"/>
						<path id="Fill-12" fill="#20BF55" d="M25.014,7.984c-0.551,0-0.998-0.447-0.998-0.998s0.447-0.998,0.998-0.998
							s0.998,0.447,0.998,0.998S25.564,7.984,25.014,7.984 M25.014,3.992c-1.651,0-2.994,1.343-2.994,2.994s1.343,2.994,2.994,2.994
							c1.65,0,2.994-1.343,2.994-2.994S26.664,3.992,25.014,3.992"/>
						<path id="Fill-14" fill="#20BF55" d="M25.014,15.444c-2.18-2.585-4.99-6.553-4.99-8.458c0-2.75,2.239-4.99,4.99-4.99
							c2.75,0,4.99,2.24,4.99,4.99C30.004,8.889,27.193,12.859,25.014,15.444 M25.014,0c-3.854,0-6.986,3.134-6.986,6.986
							c0,3.585,5.604,9.935,6.243,10.647c0.19,0.21,0.46,0.331,0.743,0.331s0.553-0.121,0.742-0.331
							C26.395,16.921,32,10.571,32,6.986C32,3.134,28.865,0,25.014,0"/>
					</g>
				</g>
			</g>
		</g>
	</g>
</g>
</svg>
