<?xml version="1.0" encoding="utf-8"?>
<!-- Generator: Adobe Illustrator 16.0.0, SVG Export Plug-In . SVG Version: 6.00 Build 0)  -->
<!DOCTYPE svg PUBLIC "-//W3C//DTD SVG 1.1//EN" "http://www.w3.org/Graphics/SVG/1.1/DTD/svg11.dtd">
<svg version="1.1" id="Layer_1" xmlns="http://www.w3.org/2000/svg" xmlns:xlink="http://www.w3.org/1999/xlink" x="0px" y="0px"
	 width="34px" height="32px" viewBox="0 0 34 32" enable-background="new 0 0 34 32" xml:space="preserve">
<title>聯絡我們</title>
<desc>Created with Sketch.</desc>
<g id="_x31_920">
	<g id="_x30_1首頁" transform="translate(-985.000000, -2463.000000)">
		<g id="Group-16" transform="translate(985.000000, 2459.000000)">
			<g id="Group-12" transform="translate(0.000000, 0.000000)">
				<g id="Group-11">
					<path id="聯絡我們" fill="#0066B3" d="M12.231,25.109l-10.4,8.125L1.81,17.855L12.231,25.109z M17.013,23.677
						l13.391,10.462l-26.83,0.037L17.013,23.677z M16.459,21.806l-2.729,2.133l-6.666-4.641V9.306h19.873v9.954l-6.659,4.663
						l-2.71-2.117c-0.003-0.003-0.007-0.005-0.013-0.009C17.23,21.552,16.78,21.556,16.459,21.806z M32.189,33.23l-10.416-8.139
						l10.396-7.279L32.189,33.23z M28.744,17.994V14.24l2.682,1.877L28.744,17.994z M14.892,7.485l2.109-1.468l2.097,1.468H14.892z
						 M2.493,16.116l2.764-1.924v3.848L2.493,16.116z M33.975,16.102c0-0.055-0.012-0.137-0.033-0.183
						c-0.056-0.205-0.182-0.384-0.355-0.505l-4.842-3.391V8.396c0-0.502-0.405-0.91-0.904-0.91h-5.576l-4.746-3.323
						c-0.307-0.215-0.721-0.216-1.029-0.002l-4.776,3.325H6.16c-0.498,0-0.903,0.408-0.903,0.91v3.584l-4.866,3.387
						c-0.239,0.166-0.385,0.441-0.39,0.738C0,16.11,0,16.114,0,16.119l0.026,18.973c0,0.242,0.095,0.471,0.266,0.643
						C0.462,35.906,0.688,36,0.931,36l32.167-0.045c0.498,0,0.902-0.409,0.902-0.911L33.975,16.102z"/>
				</g>
			</g>
		</g>
	</g>
</g>
</svg>
