<?xml version="1.0" encoding="utf-8"?>
<!-- Generator: Adobe Illustrator 16.0.0, SVG Export Plug-In . SVG Version: 6.00 Build 0)  -->
<!DOCTYPE svg PUBLIC "-//W3C//DTD SVG 1.1//EN" "http://www.w3.org/Graphics/SVG/1.1/DTD/svg11.dtd">
<svg version="1.1" id="Layer_1" xmlns="http://www.w3.org/2000/svg" xmlns:xlink="http://www.w3.org/1999/xlink" x="0px" y="0px"
	 width="32px" height="21px" viewBox="0 0 32 21" enable-background="new 0 0 32 21" xml:space="preserve">
<title>message</title>
<desc>Created with Sketch.</desc>
<g id="_x31_920">
	<g id="_x30_1首頁" transform="translate(-986.000000, -2563.000000)">
		<g id="Group-16" transform="translate(985.000000, 2459.000000)">
			<g id="Group-4" transform="translate(0.000000, 100.000000)">
				<g id="Group-15" transform="translate(1.000000, 0.000000)">
					<g id="message" transform="translate(0.000000, 4.000000)">
						<g id="Clip-2">
						</g>
						<defs>
							<filter id="Adobe_OpacityMaskFilter" filterUnits="userSpaceOnUse" x="-0.5" y="-0.462" width="32.99" height="21.577">
								<feColorMatrix  type="matrix" values="1 0 0 0 0  0 1 0 0 0  0 0 1 0 0  0 0 0 1 0"/>
							</filter>
						</defs>
						<mask maskUnits="userSpaceOnUse" x="-0.5" y="-0.462" width="32.99" height="21.577" id="mask-2">
							<g filter="url(#Adobe_OpacityMaskFilter)">
								<polygon id="path-1" fill="#FFFFFF" points="0,0.038 31.99,0.038 31.99,20.609 0,20.609 								"/>
							</g>
						</mask>
						<path id="Fill-1" mask="url(#mask-2)" fill="#20BF55" stroke="#20BF55" d="M30.672,19.572H1.318
							c-0.156,0-0.283-0.127-0.283-0.283v-0.275l11.682-9.232l3.001,1.877c0.168,0.105,0.383,0.105,0.552,0l3.001-1.877
							l11.683,9.232v0.275C30.955,19.445,30.828,19.572,30.672,19.572z M1.035,2.453l10.75,6.714l-10.75,8.528V2.453z M1.318,1.073
							h29.354c0.123,0,0.232,0.082,0.27,0.2l-14.947,9.336L1.049,1.273C1.085,1.155,1.194,1.074,1.318,1.073z M30.955,17.695
							L20.176,9.194l10.779-6.679V17.695z M30.672,0.038H1.318C0.59,0.038,0,0.628,0,1.356v17.941c0,0.728,0.59,1.318,1.318,1.318
							h29.354c0.728,0,1.318-0.591,1.318-1.318V1.356C31.99,0.628,31.399,0.038,30.672,0.038z"/>
					</g>
				</g>
			</g>
		</g>
	</g>
</g>
</svg>
