<?xml version="1.0" encoding="UTF-8"?>
<svg width="12px" height="16px" viewBox="0 0 12 16" version="1.1" xmlns="http://www.w3.org/2000/svg" xmlns:xlink="http://www.w3.org/1999/xlink">
    <!-- Generator: Sketch 51 (57462) - http://www.bohemiancoding.com/sketch -->
    <title>Fill 1 Copy 4</title>
    <desc>Created with Sketch.</desc>
    <defs></defs>
    <g id="1920" stroke="none" stroke-width="1" fill="none" fill-rule="evenodd">
        <g id="01首頁" transform="translate(-1548.000000, -1782.000000)">
            <rect fill="#FFFFFF" x="0" y="0" width="1920" height="2900"></rect>
            <g id="Group" transform="translate(361.000000, 1436.000000)" fill="#0197F6">
                <g id="Group-8" transform="translate(1036.000000, 337.000000)">
                    <path d="M157.000175,23 C156.488682,23 156.008421,22.7559162 155.71103,22.3446393 L149.295629,13.4740244 C148.786399,12.7712775 148.951616,11.7940481 149.663633,11.2920221 C150.374293,10.7895491 151.365143,10.9513776 151.873468,11.6554656 L157.000175,18.7437321 L162.12643,11.6554656 C162.634756,10.9522717 163.6247,10.7895491 164.336265,11.2920221 C165.048283,11.7940481 165.2135,12.7708305 164.704722,13.4740244 L158.289321,22.3446393 C157.99193,22.7559162 157.512122,23 157.000175,23" id="Fill-1-Copy-4" transform="translate(157.000000, 17.000000) rotate(-90.000000) translate(-157.000000, -17.000000) "></path>
                </g>
            </g>
        </g>
    </g>
</svg>