<?xml version="1.0" encoding="utf-8"?>
<!-- Generator: Adobe Illustrator 16.0.0, SVG Export Plug-In . SVG Version: 6.00 Build 0)  -->
<!DOCTYPE svg PUBLIC "-//W3C//DTD SVG 1.1//EN" "http://www.w3.org/Graphics/SVG/1.1/DTD/svg11.dtd">
<svg version="1.1" id="Layer_1" xmlns="http://www.w3.org/2000/svg" xmlns:xlink="http://www.w3.org/1999/xlink" x="0px" y="0px"
	 width="32px" height="32px" viewBox="0 0 32 32" enable-background="new 0 0 32 32" xml:space="preserve">
<title>Group</title>
<desc>Created with Sketch.</desc>
<g id="_x31_920">
	<g id="_x30_1首頁" transform="translate(-985.000000, -2609.000000)">
		<g id="Group-16" transform="translate(985.000000, 2459.000000)">
			<g id="Group-4" transform="translate(0.000000, 100.000000)">
				<g id="Group-6" transform="translate(0.000000, 50.000000)">
					<g id="Group">
						<path id="Fill-1" fill="#20BF55" d="M27.797,28.023l-6.271-6.271l1.631-1.631l6.271,6.271L27.797,28.023z M25.564,28.852
							C25.564,28.852,25.564,28.852,25.564,28.852c-1.381,1.381-3.822,1.609-6.873,0.643c-3.266-1.035-6.754-3.295-9.822-6.363
							c-3.068-3.068-5.328-6.557-6.363-9.822C1.54,10.257,1.768,7.817,3.148,6.436l0,0l0.173-0.173l4.866,4.866l-0.446,0.446
							c0,0,0,0-0.001,0.001c-1.849,1.852,0.373,6.009,3.524,9.161c2.358,2.357,5.281,4.195,7.378,4.195
							c0.705,0,1.316-0.207,1.783-0.674l0,0l0.445-0.445l4.866,4.865L25.564,28.852z M5.607,2.572l6.27,6.271l-1.629,1.631
							c0,0,0,0-0.001-0.001l-0.023-0.023L7.112,7.338L3.977,4.203L5.607,2.572z M30.785,25.035l-6.271-6.271
							c-0.748-0.748-1.965-0.748-2.714,0l-1.631,1.631c-0.511,0.511-0.673,1.24-0.485,1.89L19.068,22.9l0,0
							c-0.438,0.438-3.158-0.232-6.447-3.521c-3.288-3.289-3.959-6.009-3.523-6.447h0l0.616-0.616
							c0.174,0.05,0.353,0.075,0.533,0.075c0.491,0,0.983-0.187,1.357-0.561l1.63-1.63c0.748-0.749,0.748-1.966,0-2.715l-6.27-6.27
							C6.602,0.853,6.12,0.653,5.607,0.653s-0.995,0.2-1.357,0.562l-1.63,1.63c-0.511,0.511-0.672,1.24-0.486,1.89
							c0,0-0.521,0.526-0.547,0.56c-1.735,1.928-2.06,4.964-0.91,8.593c1.126,3.553,3.554,7.318,6.835,10.6s7.046,5.709,10.6,6.836
							C19.539,31.775,20.874,32,22.087,32c1.988,0,3.646-0.604,4.835-1.791l0.342-0.342c0.171,0.049,0.35,0.075,0.533,0.075
							c0.513,0,0.994-0.2,1.357-0.562l1.631-1.631C31.533,27.001,31.533,25.783,30.785,25.035z"/>
						<path id="Fill-3" fill="#20BF55" d="M24.301,7.699c-1.826-1.826-4.252-2.831-6.834-2.831c-0.529,0-0.959,0.43-0.959,0.96
							c0,0.53,0.43,0.959,0.959,0.959c2.068,0,4.014,0.806,5.477,2.269s2.269,3.408,2.269,5.477c0,0.53,0.43,0.96,0.96,0.96
							c0.529,0,0.959-0.43,0.959-0.959C27.131,11.952,26.126,9.524,24.301,7.699"/>
						<path id="Fill-5" fill="#20BF55" d="M27.743,4.257C24.998,1.512,21.349,0,17.467,0c-0.53,0-0.96,0.43-0.96,0.96
							c0,0.53,0.43,0.959,0.96,0.959c3.369,0,6.537,1.312,8.919,3.695c2.382,2.382,3.694,5.55,3.694,8.919
							c0,0.53,0.43,0.959,0.96,0.959S32,15.063,32,14.533C32,10.651,30.488,7.002,27.743,4.257"/>
						<path id="Fill-7" fill="#20BF55" d="M20.858,11.141c-0.919-0.919-2.092-1.405-3.392-1.405l0,0c-0.529,0-0.959,0.43-0.959,0.96
							s0.43,0.96,0.959,0.959l0,0c0.791,0,1.475,0.284,2.034,0.843c0.552,0.551,0.843,1.255,0.843,2.034
							c0,0.53,0.43,0.959,0.959,0.959l0,0c0.531,0,0.961-0.43,0.961-0.959C22.264,13.233,21.777,12.061,20.858,11.141"/>
					</g>
				</g>
			</g>
		</g>
	</g>
</g>
</svg>
