<?xml version="1.0" encoding="utf-8"?>
<!-- Generator: Adobe Illustrator 16.0.0, SVG Export Plug-In . SVG Version: 6.00 Build 0)  -->
<!DOCTYPE svg PUBLIC "-//W3C//DTD SVG 1.1//EN" "http://www.w3.org/Graphics/SVG/1.1/DTD/svg11.dtd">
<svg version="1.1" id="Layer_1" xmlns="http://www.w3.org/2000/svg" xmlns:xlink="http://www.w3.org/1999/xlink" x="0px" y="0px"
	 width="32px" height="32px" viewBox="0 0 32 32" enable-background="new 0 0 32 32" xml:space="preserve">
<title>服務內容</title>
<desc>Created with Sketch.</desc>
<g id="Group-10" transform="translate(985.000000, 1989.000000)">
	<g id="Group-4">
		<g id="服務內容" transform="translate(0.000000, 5.000000)">
			<path id="Fill-1" fill="#FFFFFF" d="M-955.307-1975.617l-4.463,5.965c-0.874,1.167-2.264,1.863-3.72,1.863h-11.637l-3.485-6.983
				l1.76-1.552c1.751-1.544,4.392-1.544,6.143,0c1.031,0.91,1.673,1.082,2.341,1.082h4.878c0.513,0,0.93,0.418,0.93,0.932
				s-0.417,0.932-0.93,0.932h-4.749c-0.514,0-0.93,0.417-0.93,0.932c0,0.514,0.417,0.932,0.93,0.932h5.372
				c0.771,0,1.516-0.324,2.041-0.891l4.094-4.402c0.374-0.402,0.948-0.369,1.301-0.061
				C-955.062-1976.547-955.023-1975.994-955.307-1975.617 M-976.851-1964.994l-1.224,0.613l-4.748-9.514l1.225-0.613
				c0.459-0.23,1.017-0.044,1.247,0.417l3.916,7.847C-976.205-1965.783-976.391-1965.225-976.851-1964.994 M-954.252-1978.312
				c-1.062-0.876-2.739-0.952-3.84,0.232l-2.733,2.939c-0.354-1.138-1.414-1.966-2.664-1.966h-4.878
				c-0.37,0-0.494-0.143-1.136-0.638c-2.451-2.141-6.133-2.134-8.576,0.021l-1.793,1.581c-0.806-0.427-1.747-0.438-2.557-0.031
				l-2.056,1.029c-0.459,0.23-0.646,0.79-0.416,1.25l5.579,11.18c0.23,0.461,0.789,0.646,1.248,0.418l2.056-1.031
				c1.013-0.508,1.578-1.543,1.541-2.598h10.988c2.038,0,3.984-0.976,5.207-2.609l4.464-5.963
				C-952.953-1975.654-953.09-1977.35-954.252-1978.312"/>
			<path id="Fill-4" fill="#FFFFFF" d="M-971.92-1982.696c0-2.054,1.731-3.789,3.781-3.789c2.051,0,3.719,1.699,3.719,3.789H-971.92
				z M-968.139-1992.137c1.008,0,1.859,0.882,1.859,1.925c0,1.027-0.834,1.864-1.859,1.864c-1.042,0-1.921-0.854-1.921-1.864
				C-970.06-1991.237-969.162-1992.137-968.139-1992.137z M-965.448-1987.643c0.637-0.669,1.028-1.573,1.028-2.569
				c0-2.051-1.653-3.789-3.719-3.789c-2.05,0-3.781,1.735-3.781,3.789c0,0.965,0.377,1.876,1.063,2.577
				c-1.7,0.955-2.923,2.789-2.923,4.939v0.932c0,0.514,0.417,0.932,0.93,0.932h9.36c0.513,0,0.93-0.417,0.93-0.932v-0.932
				C-962.56-1984.804-963.717-1986.666-965.448-1987.643z"/>
		</g>
	</g>
</g>
</svg>
